<?xml version="1.0" encoding="utf-8"?>
<!-- Generator: Adobe Illustrator 24.2.3, SVG Export Plug-In . SVG Version: 6.00 Build 0)  -->
<svg version="1.1" id="Capa_1" xmlns="http://www.w3.org/2000/svg" xmlns:xlink="http://www.w3.org/1999/xlink" x="0px" y="0px"
	 viewBox="0 0 274 100" style="enable-background:new 0 0 274 100;" xml:space="preserve">
<style type="text/css">
	.st0{fill:#1D1D1B;}
</style>
<g>
	<polygon points="97,93.7 95.4,93.7 95.4,84.7 91.8,89.2 91.5,89.2 87.9,84.7 87.9,93.7 86.3,93.7 86.3,82.2 87.8,82.2 91.7,86.9 
		95.5,82.2 97,82.2 	"/>
	<path d="M105.8,93.7v-1c-0.7,0.8-1.6,1.1-2.3,1.1c-0.5,0-1.5-0.2-2.2-1.2c-0.2-0.4-0.4-0.8-0.4-2.2v-4.3h1.5v4.3
		c0,0.9,0,2.2,1.5,2.2c0.7,0,1.4-0.4,1.8-1.1v-5.4h1.5v7.6H105.8z"/>
	<rect x="111.2" y="82.2" width="1.5" height="11.6"/>
	<path d="M118.3,86.1h2.4v1.4h-2.4v3.3c0,0.9,0,1.1,0.3,1.4c0.3,0.3,0.7,0.3,0.8,0.3c0.3,0,0.9,0,1.7-0.5v1.4
		c-0.7,0.4-1.5,0.5-1.9,0.5c-0.5,0-1.5-0.2-2-1c-0.4-0.6-0.4-1.4-0.4-2.1v-3.4h-1.3v-0.2l2.8-2.8V86.1z"/>
	<path d="M125.8,83.8c0,0.5-0.4,0.9-0.9,0.9c-0.6,0-0.9-0.5-0.9-0.9c0-0.4,0.4-0.9,0.9-0.9C125.4,82.9,125.8,83.3,125.8,83.8
		 M125.7,93.7h-1.5v-7.6h1.5V93.7z"/>
	<path d="M135.9,93c-0.5,0.3-1.4,0.9-3,0.9c-0.8,0-1.7-0.1-2.6-1.1c-1-1-1.1-2.2-1.1-2.9c0-2.4,1.5-3.9,3.6-3.9c1.8,0,3,1.3,3.2,2.9
		c0.1,0.5,0.1,0.8,0.1,1.1h-5.4c0.1,1.1,0.8,2.4,2.5,2.4c1,0,1.9-0.3,2.8-0.9V93z M134.5,89.1c0-0.3-0.1-1.9-1.8-1.9
		c-0.5,0-1.1,0.2-1.5,0.6c-0.4,0.4-0.5,0.9-0.5,1.2H134.5z"/>
	<path d="M143.7,88.1c-0.8-0.5-1.5-0.8-2.2-0.8c-0.7,0-1,0.4-1,0.7c0,0.5,0.5,0.8,1.6,1.4c1.1,0.6,1.9,1.4,1.9,2.4
		c0,0.7-0.5,2.2-2.6,2.2c-1.1,0-1.8-0.3-2.5-0.7v-1.6c1.1,0.7,2,1,2.4,1c0.5,0,1.2-0.3,1.2-0.8c0-0.5-0.5-0.8-1.2-1.2
		c-1.3-0.7-2.4-1.4-2.4-2.6c0-1.1,1-2,2.4-2c1.1,0,1.9,0.4,2.3,0.6V88.1z"/>
	<path d="M150.1,86.1c0.1,0,1.7,0,2.7,0.6c1.4,0.9,1.6,2.4,1.6,3.2c0,2.2-1.5,3.9-3.8,3.9c-0.8,0-1.3-0.2-1.6-0.3v4.1h-1.5V86.1
		H150.1z M149,87.5v4.7c0.7,0.4,1.3,0.4,1.5,0.4c1.3,0,2.4-1,2.4-2.6c0-2.4-2-2.4-2.8-2.4H149z"/>
	<path d="M163.7,93.3c-0.7,0.5-1,0.6-1.5,0.6c-0.7,0-1-0.2-1.2-0.8c-0.7,0.5-1.4,0.8-2,0.8c-1.1,0-1.9-0.9-1.9-1.9
		c0-1.5,1.4-2,2.6-2.4l1.3-0.5v-0.4c0-0.9-0.5-1.3-1.4-1.3c-0.8,0-1.7,0.4-2.4,1.3V87c0.6-0.7,1.4-1,2.5-1c1.5,0,2.8,0.8,2.8,2.5
		v3.9c0,0.3,0.1,0.4,0.3,0.4c0.2,0,0.5-0.2,0.8-0.4V93.3z M161.1,90c-1.3,0.4-2.4,0.9-2.4,1.8c0,0.6,0.5,1.1,1.1,1.1
		c0.5,0,0.9-0.2,1.3-0.6V90z"/>
	<path d="M171.8,88.1c-0.4-0.3-1.1-0.7-2.1-0.7c-1.6,0-2.3,1.3-2.3,2.5c0,1.3,0.7,2.5,2.6,2.5c0.8,0,1.4-0.3,2-0.5v1.5
		c-0.3,0.1-1.1,0.4-2.2,0.4c-2.6,0-3.9-1.8-3.9-3.9c0-1.8,1-4,3.8-4c1,0,1.6,0.3,2.2,0.5V88.1z"/>
	<path d="M177.1,83.8c0,0.5-0.4,0.9-0.9,0.9c-0.6,0-0.9-0.5-0.9-0.9c0-0.4,0.4-0.9,0.9-0.9C176.7,82.9,177.1,83.3,177.1,83.8
		 M176.9,93.7h-1.5v-7.6h1.5V93.7z"/>
	<path d="M188.5,89.9c0,2.7-2.2,3.9-4.1,3.9c-2.4,0-4-1.8-4-4c0-2.1,1.6-3.9,4.1-3.9C186.7,86,188.5,87.5,188.5,89.9 M181.9,89.9
		c0,1.9,1.4,2.6,2.5,2.6c1.5,0,2.5-1.1,2.5-2.6c0-1.9-1.5-2.6-2.6-2.6C183,87.3,181.9,88.2,181.9,89.9"/>
	<path class="st0" d="M111.9,31.8c-2.3,0.2-4.6,0.9-6.9,2.1c-2.3,1.2-4.5,2.8-6.5,5c-2,2.1-3.7,4.7-5,7.7c-1.3,2.9-2.2,5.5-2.7,7.7
		c-0.5,2.2-0.6,4-0.5,5.5c0.2,1.4,0.6,2.5,1.4,3.2c0.7,0.7,1.6,1.1,2.7,1.1c1.5,0,3.1-0.4,4.7-1.3c1.6-0.9,3-1.9,4.2-3.2
		c0.1,1.8,0.6,3,1.5,3.6c0.9,0.6,1.9,0.9,2.9,0.9c0.7,0,1.6-0.2,2.5-0.5c0.9-0.3,1.9-0.9,2.9-1.7c0.7-0.6,1.4-1.2,2.1-2
		c0.4-0.5,0.4-1.3-0.1-1.7l-0.5-0.5c-1,0.6-1.8,0.8-2.4,0.6c-0.5-0.1-0.8-0.5-0.9-1.1c-0.2-0.6,0.1-2,0.8-4.1c0.3-1.1,0.8-2.8,1.5-5
		c0.7-2.2,1.4-4.5,2-6.7c0.8-2.7,1.6-5.5,2.5-8.5C116.3,31.9,114.2,31.6,111.9,31.8 M104.3,53c-0.3,1-0.6,2-0.8,2.8
		c-0.5,0.3-1,0.7-1.7,1.1c-0.7,0.4-1.3,0.6-1.9,0.6c-0.7,0-1.2-0.5-1.3-1.6c-0.1-1-0.1-2.4,0.3-4c0.3-1.6,0.8-3.3,1.5-5.2
		c0.7-1.8,1.5-3.6,2.3-5.2c0.8-1.6,1.8-2.9,2.7-4c1-1,1.9-1.6,2.8-1.6c0.3,0,0.7,0.1,1,0.2L104.3,53z"/>
	<path class="st0" d="M186.6,30.3c1.6-2.8,2.4-5.8,2.6-9c0.2-3.3-0.6-6.3-2.3-9c-1.7-2.8-4.4-5.1-8.2-6.9c-3.8-1.8-8.8-2.8-15.1-2.8
		c-4.8,0-9.1,0.7-12.9,2.2c-3.9,1.4-7.3,3.4-10.3,5.7c-3,2.4-5.5,5.1-7.6,8.1c-2.1,3.1-3.6,6.2-4.7,9.3c-1,3.1-1.6,6.2-1.6,9.3
		c0,3.1,0.5,5.8,1.5,8.1c1,2.4,2.7,4.3,4.8,5.7c2.2,1.4,4.9,2.2,8.3,2.2c0.3,0,0.6,0,0.8,0c1.2-0.1,1.6-1.7,0.6-2.4
		c-0.8-0.5-1.6-1.1-2.3-1.6c-1-0.8-1.9-1.6-2.6-2.7c-1.2-2.1-2-4.8-2.2-8.1c-0.3-3.2,0-6.7,0.8-10.5c0.8-3.8,2.2-7.3,4.2-10.5
		c2-3.2,4.8-5.9,8.1-8.1c3.4-2.1,7.5-3.2,12.4-3.2c3.6,0,6.7,0.6,9.1,1.7c0.9,0.4,1.8,0.9,2.6,1.4c1.4,0.9,1.1,3-0.4,3.5
		c-1.2,0.4-2.3,1.1-3.4,1.9c-2.1,1.6-4,3.8-5.6,6.4c-1.7,2.7-3.2,5.7-4.5,9c-1.3,3.3-2.6,6.8-3.7,10.3c-1.2,3.5-2.2,6.9-3.3,10.3
		c-1,3.3-2.1,6.3-3.2,8.9c-1.1,2.6-2.3,4.7-3.5,6.3c-1.2,1.6-2.6,2.4-4.1,2.4c-1.1,0-1.9-0.2-2.4-0.6c-0.5-0.4-0.9-0.9-1-1.5
		c-0.1-0.6,0-1.1,0.2-1.7c0.3-0.6,0.7-0.9,1.1-1.4c2-2.5-0.5-3.3-3.1-3.5c-2.9-0.3-5.4,2.1-5.2,4.9c0,0.5,0.1,0.9,0.2,1.4
		c0.3,1.4,1,2.5,1.9,3.4c0.9,0.9,2.1,1.5,3.4,1.9c1.4,0.4,2.8,0.6,4.2,0.6c3.4,0,6.4-1,8.9-2.9c2.5-1.9,4.8-4.4,6.7-7.5
		c2-3.1,3.7-6.6,5.1-10.4c1.2-3.3,2.4-6.6,3.5-9.9c0.3-1,1.4-1.5,2.4-1.3c1.3,0.3,2.6,0.4,4,0.4c3.3,0,6.3-0.9,9-2.8
		C182.9,35.4,185,33.1,186.6,30.3 M179.5,28.7c-0.7,2.4-1.7,4.4-3.1,5.9c-1.4,1.6-3.1,2.4-5,2.4c-0.7,0-1.5-0.1-2.3-0.3
		c-0.2-0.1-0.5-0.1-0.8-0.2c-1.1-0.3-1.6-1.5-1.3-2.6c0.6-1.9,1.3-3.7,1.9-5.5c0.8-2.3,1.6-4.5,2.5-6.4c0.8-2,1.8-3.7,2.7-5.1
		c0.4-0.5,0.7-1,1.1-1.5c0.9-1.1,2.7-0.8,3.3,0.5c0.8,1.6,1.2,3.4,1.5,5.2C180.3,23.8,180.2,26.3,179.5,28.7"/>
	<path class="st0" d="M244.5,55.7c0.7-0.9,1.2-1.8,1.8-2.7c0.3-0.5,0.6-0.9,0.8-1.4c0.1-0.2,0.7-1.3,0.6-1.4h-0.3
		c-0.7,0-1.2,0.4-1.6,0.9c-0.9,1.2-0.9,1.3-2.1,2.7c-1.3,1.5-2.8,2.8-4.5,3.9c-1.7,1.2-3.4,1.7-5.3,1.7c-1.6,0-2.6-0.7-3.1-2.2
		c-0.5-1.5-0.7-3.3-0.5-5.4c2.4,0.3,4.5,0,6.5-0.9c2-0.9,3.6-2.1,5-3.5c1.4-1.5,2.4-3.1,3.2-4.9c0.7-1.8,1.1-3.5,1.1-5
		c0-1.6-0.5-2.9-1.4-3.9c-0.9-1.1-2.3-1.6-4.2-1.6c-3.2,0-6,0.8-8.4,2.4c-1.8,1.2-3.5,2.6-4.8,4.3c-0.6-0.1-1.1-0.2-1.6-0.6
		c-0.7-0.5-1.2-1.3-1.5-2.4c-0.2-0.7-0.3-1.6-0.2-2.7c0-0.8-0.8-1.3-1.5-0.9l-4,2.7c-0.5,0.3-1.2-0.2-1-0.7l0.3-0.8
		c0.2-0.6-0.3-1.2-0.9-1.2h-5.7c-0.4,0-0.8,0.3-0.9,0.7l-5.2,17.5c-0.9,1.3-1.8,2.6-2.8,3.7c-1.3,1.5-2.8,2.8-4.5,3.9
		c-1.7,1.2-3.4,1.7-5.3,1.7c-1.6,0-2.6-0.7-3.1-2.2c-0.5-1.5-0.7-3.3-0.5-5.4c2.4,0.3,4.5,0,6.5-0.9c2-0.9,3.6-2.1,5-3.5
		c1.4-1.5,2.4-3.1,3.2-4.9c0.7-1.8,1.1-3.5,1.1-5c0-1.6-0.5-2.9-1.4-3.9c-0.9-1.1-2.3-1.6-4.2-1.6c-3.2,0-6,0.8-8.4,2.4
		c-2.4,1.6-4.5,3.5-6.1,5.9c-1.6,2.3-2.8,4.9-3.4,7.7c-0.7,2.8-0.9,5.3-0.6,7.7c0.3,2.3,1.2,4.3,2.6,5.9c1.4,1.6,3.5,2.4,6.2,2.4
		c1.4,0,2.8-0.2,4.1-0.7c1.3-0.5,2.5-1,3.6-1.8c1.1-0.7,2.2-1.6,3.1-2.5c1-0.9,1.8-1.9,2.6-2.9c0.3-0.3,0.5-0.6,0.7-1l-2.4,8
		c-0.2,0.6,0.3,1.2,0.9,1.2h5.7c0.4,0,0.8-0.3,0.9-0.7l6.3-21.3c0.2-0.8,1.4-0.9,1.7-0.2c0.2,0.4,0.5,0.8,0.8,1.1
		c0.9,0.9,2,1.3,3.3,1.2c1-0.1,2.2-0.4,3.4-1.1c-0.7,1.5-1.3,3-1.7,4.6c-0.7,2.8-0.9,5.3-0.6,7.7c0.3,2.3,1.2,4.3,2.6,5.9
		c1.4,1.6,3.5,2.4,6.2,2.4c1.4,0,2.8-0.2,4.1-0.7c1.3-0.5,2.5-1,3.6-1.8c0.5-0.3,0.9-0.6,1.4-1C241.6,59,243.2,57.4,244.5,55.7
		 M232,43.9c0.6-1.8,1.3-3.3,2-4.8c0.7-1.4,1.5-2.6,2.3-3.5c0.8-0.9,1.6-1.4,2.3-1.4c0.6,0,0.9,0.4,1,1.2c0.1,0.8,0,1.8-0.3,3.1
		c-0.3,1.2-0.7,2.5-1.3,3.9s-1.3,2.6-2.1,3.7c-0.8,1.1-1.7,2-2.6,2.5c-0.9,0.6-1.9,0.7-2.8,0.4C231,47.4,231.4,45.6,232,43.9
		 M190.5,43.9c0.6-1.8,1.3-3.3,2-4.8c0.7-1.4,1.5-2.6,2.3-3.5c0.8-0.9,1.6-1.4,2.3-1.4c0.6,0,0.9,0.4,1,1.2c0.1,0.8,0,1.8-0.3,3.1
		c-0.3,1.2-0.7,2.5-1.3,3.9c-0.6,1.4-1.3,2.6-2.1,3.7c-0.8,1.1-1.7,2-2.6,2.5c-0.9,0.6-1.9,0.7-2.8,0.4
		C189.4,47.4,189.9,45.6,190.5,43.9"/>
	<path class="st0" d="M271,31.9c-2.9,1.2-6.2,0.1-9.4,0c-4-0.1-9.9,1.4-11.8,5.4l-1,2.2c1-0.5,4.3-0.7,5.3-0.7
		c1.1,0,2.2,0.1,3.4,0.2c1.2,0.1,2.5,0,4-0.4l-21.3,25.7h3.7l7.5-5.3c0.5,1.6,1.2,2.9,2.1,3.8c0.9,0.9,2,1.3,3.2,1.3
		c0.8,0,1.7-0.2,2.6-0.5c0.9-0.3,1.9-0.9,2.8-1.7c1-0.8,1.9-1.8,2.8-3c0.9-1.2,1.7-2.7,2.4-4.5h-0.6c-0.4,0-0.7,0.2-0.8,0.5
		c-0.6,1.2-1.3,2-2.1,2.4c-0.9,0.5-1.7,0.8-2.3,0.8c-1,0-1.7-0.7-2.2-2c-0.2-0.5-0.4-1.1-0.5-1.7c-0.3-1.4-2-2.1-3.2-1.3l-5.3,3.4
		c5.8-6.9,11.6-13.9,17.4-20.8C268.9,34.5,270,33.2,271,31.9"/>
	<path class="st0" d="M85.3,38.8c-0.4,0.2-0.9,0.1-1.5,0c-1-0.3-2.1,0.4-1.9,1.5c0.1,0.6,0.3,1.1,0.6,1.6c0.8,1,1.8,1.6,3.1,1.8
		c1.2,0.2,2.5,0,3.8-0.6c1.3-0.6,2.2-1.8,2.7-3.5c0.6-2.3,0.1-4.1-1.4-5.5c-1.5-1.4-3.6-2.1-6.4-2.1c-3.2,0-5.7,0.7-7.5,2
		c-1.8,1.4-3,3-3.4,4.9c-0.5,1.9-0.3,3.9,0.6,6.1c0.9,2.1,2.4,3.9,4.6,5.5c1.2,0.9,2.1,2,2.5,3.4c0.5,1.3,0.6,2.6,0.3,3.8
		c-0.3,1.2-0.8,2.2-1.7,3.1c-0.9,0.8-2,1.1-3.4,1c-1.2-0.2-1.9-0.7-2.2-1.5c-0.4-1.4,0.1-2.9,1.4-3.7c0.4-0.3,0.9-0.4,1.4-0.4
		c0.4,0,0.8,0.2,1.3,0.1c0.8-0.1,1.4-1,1.1-1.8c0-0.1,0-0.1,0-0.2c-0.3-0.9-0.8-1.7-1.4-2.3c-0.7-0.6-1.5-1.1-2.4-1.4
		c-0.9-0.3-1.9-0.3-2.8-0.2c-1,0.2-1.9,0.6-2.7,1.3c-0.8,0.7-1.4,1.7-1.8,3c-0.1,0.2-0.1,0.4-0.2,0.7c-0.6,1.1-1.3,1.9-2.1,2.4
		c-1,0.6-1.8,0.8-2.4,0.6c-0.5-0.1-0.8-0.5-0.9-1.1c-0.2-0.6,0.1-2,0.8-4.1c0.3-1.1,0.8-2.8,1.5-5c0.7-2.2,1.4-4.5,2-6.7
		c0.8-2.7,1.6-5.5,2.5-8.5c-1.9-0.8-3.9-1.2-6.2-0.9c-2.3,0.2-4.6,0.9-6.9,2.1c-2.3,1.2-4.5,2.8-6.5,5c-2,2.1-3.7,4.7-5,7.7
		c-0.7,1.5-1.2,2.9-1.7,4.2c-1.9,2.7-3.8,5.2-5.9,7.4c-1.1,1.2-2.3,2.3-3.6,3.5c-1.3,1.1-2.6,2.2-4,3.1c-1.4,0.9-2.8,1.6-4.2,2.2
		c-1.4,0.5-2.9,0.8-4.4,0.8c-2.1,0-3.8-0.9-5-2.6c-1.2-1.7-1.9-4-2.3-6.9c-0.4-2.9-0.4-6.1,0-9.7c0.4-3.6,1.1-7.3,2.1-11.2
		c1-3.8,2.3-7.5,3.9-11.2c1.6-3.6,3.3-6.9,5.3-9.7c2-2.9,4.2-5.1,6.6-6.9C34.2,7.8,36.7,7,39.4,7c1.9,0,3.2,0.3,4.1,1
		c0.9,0.7,1.4,1.4,1.5,2.3c0.1,0.9-0.1,1.9-0.7,2.9c-0.6,1-1.4,1.9-2.4,2.7c-1,0.8-2.2,1.3-3.6,1.7c-0.6,0.1-1.2,0.2-1.8,0.2
		c-2.3,0-1.5,2.4-0.6,3.4c1.2,1.3,2.8,2.1,4.6,2.5c2.6,0.5,5.7,0.2,8.1-0.9c2-1,3.6-2.2,4.7-3.8c1.1-1.6,1.8-3.3,2-5.2
		c0.2-1.9-0.1-3.7-0.8-5.3c-0.8-1.7-2.1-3.1-3.9-4.2c-1.8-1.1-4.2-1.7-7.1-1.7c-3.9,0-7.7,1-11.4,3c-3.7,2-7.2,4.6-10.4,7.9
		c-3.2,3.3-6.1,7-8.6,11.1c-2.5,4.2-4.6,8.4-6.3,12.7C5.1,41.4,4,45.6,3.4,49.7c-0.6,4.1-0.5,7.8,0.2,11.1c0.7,3.3,2.2,5.9,4.4,7.8
		c2.2,2,5.2,3,9.2,3c2.2,0,4.3-0.3,6.4-1c2-0.6,4-1.5,5.8-2.6c1.8-1.1,3.5-2.3,5.1-3.7c1.6-1.4,3-2.8,4.3-4.2
		c1.1-1.2,2.2-2.5,3.2-3.8c-0.2,1.4-0.2,2.5-0.1,3.5c0.2,1.4,0.6,2.5,1.4,3.2c0.7,0.7,1.6,1.1,2.7,1.1c1.5,0,3.1-0.4,4.7-1.3
		c1.6-0.9,3-1.9,4.2-3.2c0.1,1.8,0.6,3,1.5,3.6c0.9,0.6,1.9,0.9,2.9,0.9c0.7,0,1.6-0.2,2.5-0.5c0.9-0.3,1.9-0.9,2.9-1.7
		c1-0.8,1.9-1.8,2.8-3c0.3-0.4,0.6-0.8,0.8-1.2c0,0.1,0,0.1,0,0.2c0.3,1.1,0.8,2.2,1.6,3.1c0.8,0.9,1.7,1.7,2.9,2.2
		c1.2,0.6,2.4,0.8,3.8,0.8c3.1,0,5.7-0.7,7.6-2.2c2-1.4,3.3-3.2,3.9-5.2c0.6-2,0.6-4.2-0.2-6.4c-0.8-2.2-2.4-4.1-4.8-5.7
		c-1.4-0.9-2.2-2-2.7-3.1c-0.4-1.2-0.5-2.3-0.3-3.4c0.3-1,0.8-1.9,1.6-2.6c0.8-0.7,1.8-1.1,2.9-1.1c1.2,0,2.1,0.3,2.4,1
		c0.4,0.7,0.4,1.3,0.1,2C86.7,38,86.1,38.5,85.3,38.8 M55.7,53c-0.3,1-0.6,2-0.8,2.8c-0.5,0.3-1,0.7-1.7,1.1
		c-0.7,0.4-1.3,0.6-1.9,0.6c-0.7,0-1.2-0.5-1.3-1.6c-0.1-1-0.1-2.4,0.3-4c0.3-1.6,0.8-3.3,1.5-5.2c0.7-1.8,1.5-3.6,2.3-5.2
		c0.8-1.6,1.8-2.9,2.7-4c1-1,1.9-1.6,2.8-1.6c0.3,0,0.7,0.1,1,0.2L55.7,53z"/>
</g>
</svg>
